<svg viewBox="0 0 1680 1350" xmlns="http://www.w3.org/2000/svg"><g fill="none" stroke="#000" stroke-miterlimit="10"><path d="m840 175 433.01 250"/><path d="m840 175 500 500"/><path d="m840 175 433.01 750"/><path d="m840 175 250 933.01"/><path d="m840 175-.5 999.5"/><path d="m590 1108.01 250-933.01"/><path d="m406.99 925 433.01-750"/><path d="m340 675 500-500"/><path d="m406.99 425 433.01-250"/><path d="m710.59 192.04-353.55 353.55"/><path d="m357.04 804.41 353.55-612.37"/><path d="m486.45 1028.55 224.14-836.51"/><path d="m710.59 1157.96v-965.92"/><path d="m969.41 1157.96-258.82-965.92"/><path d="m1193.55 1028.55-482.96-836.51"/><path d="m1322.96 804.41-612.37-612.37"/><path d="m1322.96 545.59-612.37-353.55"/><path d="m1193.55 321.45-482.96-129.41"/><path d="m590 241.99-250 433.01"/><path d="m406.99 925 183.01-683.01"/><path d="m590 1108.01v-866.02"/><path d="m839.5 1174.5-249.5-932.51"/><path d="m1090 1108.01-500-866.02"/><path d="m1273.01 925-683.01-683.01"/><path d="m1340 675-750-433.01"/><path d="m1273.01 425-683.01-183.01"/><path d="m1090 241.99h-500"/><path d="m486.45 321.45-129.41 482.96"/><path d="m486.45 1028.55v-707.1"/><path d="m710.59 1157.96-224.14-836.51"/><path d="m969.41 1157.96-482.96-836.51"/><path d="m1193.55 1028.55-707.1-707.1"/><path d="m1322.96 804.41-836.51-482.96"/><path d="m1322.96 545.59-836.51-224.14"/><path d="m1193.55 321.45h-707.1"/><path d="m969.41 192.04-482.96 129.41"/><path d="m406.99 425v500"/><path d="m590 1108.01-183.01-683.01"/><path d="m839.5 1174.5-432.51-749.5"/><path d="m1090 1108.01-683.01-683.01"/><path d="m1273.01 925-866.02-500"/><path d="m1340 675-933.01-250"/><path d="m1273.01 425h-866.02"/><path d="m1090 241.99-683.01 183.01"/><path d="m357.04 545.59 129.41 482.96"/><path d="m710.59 1157.96-353.55-612.37"/><path d="m969.41 1157.96-612.37-612.37"/><path d="m1193.55 1028.55-836.51-482.96"/><path d="m1322.96 804.41-965.92-258.82"/><path d="m1322.96 545.59h-965.92"/><path d="m1193.55 321.45-836.51 224.14"/><path d="m969.41 192.04-612.37 353.55"/><path d="m340 675 250 433.01"/><path d="m839.5 1174.5-499.5-499.5"/><path d="m1090 1108.01-750-433.01"/><path d="m1273.01 925-933.01-250"/><path d="m1340 675h-1000"/><path d="m1273.01 425-933.01 250"/><path d="m1090 241.99-750 433.01"/><path d="m357.04 804.41 353.55 353.55"/><path d="m969.41 1157.96-612.37-353.55"/><path d="m1193.55 1028.55-836.51-224.14"/><path d="m1322.96 804.41h-965.92"/><path d="m1322.96 545.59-965.92 258.82"/><path d="m1193.55 321.45-836.51 482.96"/><path d="m969.41 192.04-612.37 612.37"/><path d="m406.99 925 432.51 249.5"/><path d="m1090 1108.01-683.01-183.01"/><path d="m1273.01 925h-866.02"/><path d="m1340 675-933.01 250"/><path d="m1273.01 425-866.02 500"/><path d="m1090 241.99-683.01 683.01"/><path d="m486.45 1028.55 482.96 129.41"/><path d="m1193.55 1028.55h-707.1"/><path d="m1322.96 804.41-836.51 224.14"/><path d="m1322.96 545.59-836.51 482.96"/><path d="m1193.55 321.45-707.1 707.1"/><path d="m969.41 192.04-482.96 836.51"/><path d="m590 1108.01h500"/><path d="m1273.01 925-683.01 183.01"/><path d="m1340 675-750 433.01"/><path d="m1273.01 425-683.01 683.01"/><path d="m1090 241.99-500 866.02"/><path d="m710.59 1157.96 482.96-129.41"/><path d="m1322.96 804.41-612.37 353.55"/><path d="m1322.96 545.59-612.37 612.37"/><path d="m1193.55 321.45-482.96 836.51"/><path d="m969.41 192.04-258.82 965.92"/><path d="m839.5 1174.5 433.51-249.5"/><path d="m1340 675-500.5 499.5"/><path d="m1273.01 425-433.51 749.5"/><path d="m1090 241.99-250.5 932.51"/><path d="m969.41 1157.96 353.55-353.55"/><path d="m1322.96 545.59-353.55 612.37"/><path d="m1193.55 321.45-224.14 836.51"/><path d="m969.41 192.04v965.92"/><path d="m1090 1108.01 250-433.01"/><path d="m1273.01 425-183.01 683.01"/><path d="m1090 241.99v866.02"/><path d="m1193.55 1028.55 129.41-482.96"/><path d="m1193.55 321.45v707.1"/><path d="m969.41 192.04 224.14 836.51"/><path d="m1273.01 925v-500"/><path d="m1090 241.99 183.01 683.01"/><path d="m1322.96 804.41-129.41-482.96"/><path d="m969.41 192.04 353.55 612.37"/><path d="m1340 675-250-433.01"/><path d="m1322.96 545.59-353.55-353.55"/><path d="m839.75 545.59-111.95 193.9"/><path d="m951.7 739.49-111.95-193.9"/><path d="m784.03 707.32 55.72-161.73"/><path d="m895.97 707.32-56.22-161.73"/><path d="m727.8 610.22 111.95 193.9"/><path d="m840 739.63-112.2-129.41"/><path d="m951.7 610.22h-223.9"/><path d="m895.97 642.68-168.17-32.46"/><path d="m727.8 739.49 112.2-129.12"/><path d="m951.7 739.49h-223.9"/><path d="m895.97 707.32-168.17 32.17"/><path d="m839.75 804.12-55.72-161.44"/><path d="m951.7 610.22-111.95 193.9"/><path d="m895.97 642.68-56.22 161.44"/><path d="m951.7 739.49-167.67-32.17"/><path d="m840 610.37 111.7 129.12"/><path d="m951.7 610.22-111.7 129.41"/><path d="m784.03 642.68 167.67-32.46"/><path d="m839.5 610.37-55.97 32.31"/><path d="m783.53 707.32 55.97-96.95"/><path d="m783.53 642.68v64.64"/><path d="m839.5 739.63-55.97-96.95"/><path d="m783.53 707.32 55.97 32.31"/><path d="m895.47 707.32h-111.94"/><path d="m839.5 739.63 55.97-32.31"/><path d="m895.47 642.68-55.97 96.95"/><path d="m895.47 707.32v-64.64"/><path d="m839.5 610.37 55.97 96.95"/><path d="m895.47 642.68-55.97-32.31"/><path d="m783.53 642.68h111.94"/></g><circle cx="486.45" cy="321.45" fill="#0ff" r="5"/><circle cx="589.75" cy="242.42" fill="#0ff" r="5"/><circle cx="710.59" cy="192.04" fill="#0ff" r="5"/><circle cx="840" cy="175.03" fill="#0ff" r="5"/><circle cx="969.41" cy="192.04" fill="#0ff" r="5"/><circle cx="1090" cy="241.99" fill="#0ff" r="5"/><circle cx="1193.55" cy="321.45" fill="#0ff" r="5"/><circle cx="1273.01" cy="425" fill="#0ff" r="5"/><circle cx="1322.67" cy="545.59" fill="#0ff" r="5"/><circle cx="1339.73" cy="674.93" fill="#0ff" r="5"/><circle cx="1323.25" cy="804.12" fill="#0ff" r="5"/><circle cx="1273.7" cy="925.68" fill="#0ff" r="5"/><circle cx="1193.55" cy="1028.55" fill="#0ff" r="5"/><circle cx="1090" cy="1108.01" fill="#0ff" r="5"/><circle cx="969.41" cy="1157.96" fill="#0ff" r="5"/><circle cx="839.75" cy="1173.57" fill="#0ff" r="5"/><circle cx="710.59" cy="1157.98" fill="#0ff" r="5"/><circle cx="589.75" cy="1108.95" fill="#0ff" r="5"/><circle cx="486.45" cy="1028.55" fill="#0ff" r="5"/><circle cx="406.99" cy="925" fill="#0ff" r="5"/><circle cx="357.04" cy="804.41" fill="#0ff" r="5"/><circle cx="340" cy="675" fill="#0ff" r="5"/><circle cx="357.04" cy="545.59" fill="#0ff" r="5"/><circle cx="407.29" cy="425.13" fill="#0ff" r="5"/><circle cx="728.3" cy="610.8" fill="#0ff" r="5"/><circle cx="839.81" cy="545.48" fill="#0ff" r="5"/><circle cx="728.55" cy="739.35" fill="#0ff" r="5"/><circle cx="839.5" cy="804.41" fill="#0ff" r="5"/><circle cx="951.7" cy="739.49" fill="#0ff" r="5"/><circle cx="951.2" cy="610.8" fill="#0ff" r="5"/><circle cx="840.06" cy="610.3" fill="#0ff" r="5"/><circle cx="784.03" cy="642.68" fill="#0ff" r="5"/><circle cx="784.03" cy="707.61" fill="#0ff" r="5"/><circle cx="840" cy="739.7" fill="#0ff" r="5"/><circle cx="896.48" cy="707.61" fill="#0ff" r="5"/><circle cx="895.72" cy="643.4" fill="#0ff" r="5"/></svg>